<svg xmlns="http://www.w3.org/2000/svg" xmlns:xlink="http://www.w3.org/1999/xlink" width="500" zoomAndPan="magnify" viewBox="0 0 375 374.999991" height="500" preserveAspectRatio="xMidYMid meet" version="1.2"><defs><clipPath id="33205a70d6"><path d="M 10.4375 76.457031 L 142.394531 76.457031 L 142.394531 299 L 10.4375 299 Z M 10.4375 76.457031 "/></clipPath><clipPath id="ebd3519e31"><path d="M 232.523438 76 L 364.480469 76 L 364.480469 298.507812 L 232.523438 298.507812 Z M 232.523438 76 "/></clipPath><clipPath id="8ddf2ab541"><path d="M 76.433594 232.546875 L 299 232.546875 L 299 364.503906 L 76.433594 364.503906 Z M 76.433594 232.546875 "/></clipPath><clipPath id="d9d7819b8b"><path d="M 76 10.460938 L 298.484375 10.460938 L 298.484375 142.417969 L 76 142.417969 Z M 76 10.460938 "/></clipPath></defs><g id="f4974ba04c"><g clip-rule="nonzero" clip-path="url(#33205a70d6)"><path style=" stroke:none;fill-rule:nonzero;fill:#de0f3f;fill-opacity:1;" d="M 10.4375 298.148438 L 74.445312 187.484375 L 10.4375 76.816406 L 78.386719 76.816406 L 142.394531 187.484375 L 78.386719 298.148438 Z M 10.4375 298.148438 "/></g><g clip-rule="nonzero" clip-path="url(#ebd3519e31)"><path style=" stroke:none;fill-rule:nonzero;fill:#de0f3f;fill-opacity:1;" d="M 364.480469 76.816406 L 300.472656 187.484375 L 364.480469 298.148438 L 296.53125 298.148438 L 232.523438 187.484375 L 296.53125 76.816406 Z M 364.480469 76.816406 "/></g><g clip-rule="nonzero" clip-path="url(#8ddf2ab541)"><path style=" stroke:none;fill-rule:nonzero;fill:#de0f3f;fill-opacity:1;" d="M 298.125 364.503906 L 187.457031 300.496094 L 76.792969 364.503906 L 76.792969 296.554688 L 187.457031 232.546875 L 298.125 296.554688 Z M 298.125 364.503906 "/></g><g clip-rule="nonzero" clip-path="url(#d9d7819b8b)"><path style=" stroke:none;fill-rule:nonzero;fill:#de0f3f;fill-opacity:1;" d="M 76.792969 10.460938 L 187.457031 74.46875 L 298.125 10.460938 L 298.125 78.410156 L 187.457031 142.417969 L 76.792969 78.410156 Z M 76.792969 10.460938 "/></g></g></svg>